# xmcd
#
# Track frame offsets:
#	150
#	17355
#	36596
#	54161
#	69304
#	83099
#	107194
#	117033
#	129054
#	150008
#	163543
#	178054
#	195314
#	214375
#
# Disc length: 3096 seconds
#
# Revision: 0
# Processed by: cddbd v1.4PL0 Copyright (c) Steve Scherf et al.
# Submitted via: dBpowerAMP V4.0
#
DISCID=a40c160e
DTITLE=Dianne Ticknor - Swing Low, Angel Wings
DYEAR=1999
DGENRE=Gospel
TTITLE0=Pressing In
TTITLE1=Because You Have Forgiven
TTITLE2=The Perfect Man
TTITLE3=Who Am I
TTITLE4=Upon The Rock
TTITLE5=What A Friend We Have In Jesus
TTITLE6=I've Gto The Lord In My Life
TTITLE7=I Stand Amazed
TTITLE8=Swing Low, Angel Wings
TTITLE9=Take It To The Cross
TTITLE10=When Angels Touch The Ground
TTITLE11=Pass Me Not
TTITLE12=It Is Well With My Soul
TTITLE13=Don't You Know
EXTD=
EXTT0=
EXTT1=
EXTT2=
EXTT3=
EXTT4=
EXTT5=
EXTT6=
EXTT7=
EXTT8=
EXTT9=
EXTT10=
EXTT11=
EXTT12=
EXTT13=
PLAYORDER=
